<svg width="32" height="33" viewBox="0 0 32 33" fill="none" xmlns="http://www.w3.org/2000/svg">
<path d="M32 16.6001C32 7.7611 24.833 0.600098 16 0.600098C7.161 0.600098 0 7.7611 0 16.6001C0 24.5841 5.849 31.2041 13.5 32.4031V21.2261H9.437V16.6011H13.5V13.0741C13.5 9.0651 15.885 6.8511 19.541 6.8511C21.292 6.8511 23.125 7.1631 23.125 7.1631V11.1001H21.104C19.12 11.1001 18.5 12.3351 18.5 13.6001V16.6001H22.937L22.224 21.2251H18.5V32.4021C26.145 31.2031 32 24.5831 32 16.5991V16.6001Z" fill="white"/>
</svg>
