<svg width="32" height="33" viewBox="0 0 32 33" fill="none" xmlns="http://www.w3.org/2000/svg">
<path d="M16 0.600098C11.6505 0.600098 11.1084 0.6211 9.40618 0.693109C7.69696 0.77712 6.54082 1.04215 5.52069 1.4382C4.46856 1.85025 3.57245 2.39732 2.68734 3.28743C1.79622 4.17254 1.24416 5.06866 0.838105 6.12079C0.442055 7.14092 0.177022 8.29706 0.0930116 10.0063C0.016002 11.7095 0 12.2506 0 16.6001C0 20.9496 0.0210026 21.4917 0.0930116 23.1939C0.177022 24.8981 0.442055 26.0593 0.838105 27.0794C1.25016 28.1315 1.79722 29.0277 2.68734 29.9128C3.57245 30.8039 4.46856 31.3559 5.52069 31.762C6.54082 32.153 7.70196 32.4231 9.40618 32.5071C11.1094 32.5841 11.6505 32.6001 16 32.6001C20.3495 32.6001 20.8916 32.5791 22.5938 32.5071C24.298 32.4231 25.4592 32.152 26.4793 31.762C27.5314 31.3499 28.4276 30.8029 29.3127 29.9128C30.2038 29.0277 30.7558 28.1365 31.1619 27.0794C31.5529 26.0593 31.823 24.8981 31.907 23.1939C31.984 21.4907 32 20.9496 32 16.6001C32 12.2506 31.979 11.7085 31.907 10.0063C31.823 8.30206 31.5519 7.13492 31.1619 6.12079C30.7498 5.06866 30.2028 4.17254 29.3127 3.28743C28.4276 2.39632 27.5364 1.84425 26.4793 1.4382C25.4592 1.04215 24.298 0.77712 22.5938 0.693109C20.8906 0.6161 20.3495 0.600098 16 0.600098ZM16 3.48046C20.2715 3.48046 20.7816 3.50146 22.4698 3.57347C24.027 3.64648 24.8751 3.90651 25.4382 4.12654C26.1893 4.41758 26.7143 4.76162 27.2824 5.32369C27.8395 5.88076 28.1835 6.41182 28.4746 7.16292C28.6946 7.72599 28.9546 8.5741 29.0276 10.1313C29.0996 11.8195 29.1206 12.3306 29.1206 16.6011C29.1206 20.8716 29.0996 21.3827 29.0216 23.0709C28.9376 24.6281 28.6776 25.4762 28.4586 26.0393C28.1555 26.7904 27.8175 27.3154 27.2594 27.8835C26.6963 28.4406 26.1603 28.7846 25.4152 29.0757C24.8591 29.2957 23.999 29.5557 22.4358 29.6287C20.7386 29.7007 20.2385 29.7217 15.956 29.7217C11.6735 29.7217 11.1744 29.7007 9.47518 29.6227C7.91799 29.5387 7.05888 29.2787 6.49581 29.0597C5.73572 28.7566 5.21465 28.4186 4.65658 27.8605C4.09351 27.2974 3.73547 26.7614 3.45943 26.0163C3.2354 25.4602 2.97937 24.6001 2.89636 23.0369C2.83935 21.3597 2.81235 20.8396 2.81235 16.5771C2.81235 12.3166 2.83935 11.7955 2.89636 10.0973C2.97937 8.53409 3.2354 7.67598 3.45943 7.11791C3.73547 6.35682 4.09451 5.83675 4.65658 5.27368C5.21365 4.71661 5.73572 4.35657 6.49581 4.07453C7.05888 3.8555 7.89699 3.59547 9.46018 3.51746C11.1574 3.45646 11.6575 3.43445 15.934 3.43445L16 3.48046ZM16 8.38807C11.4584 8.38807 7.78597 12.0655 7.78597 16.6021C7.78597 21.1437 11.4634 24.8161 16 24.8161C20.5416 24.8161 24.214 21.1387 24.214 16.6021C24.214 12.0605 20.5366 8.38807 16 8.38807ZM16 21.9358C13.0516 21.9358 10.6663 19.5505 10.6663 16.6021C10.6663 13.6537 13.0516 11.2684 16 11.2684C18.9484 11.2684 21.3337 13.6537 21.3337 16.6021C21.3337 19.5505 18.9484 21.9358 16 21.9358ZM26.4653 8.06003C26.4653 9.12316 25.6002 9.98127 24.5421 9.98127C23.4789 9.98127 22.6208 9.12216 22.6208 8.06003C22.6208 7.0029 23.4849 6.14279 24.5421 6.14279C25.5992 6.14279 26.4653 7.0029 26.4653 8.06003Z" fill="white"/>
</svg>
