<svg width="32" height="33" viewBox="0 0 32 33" fill="none" xmlns="http://www.w3.org/2000/svg">
<path d="M27.26 27.6738H22.527V20.2468C22.527 18.4758 22.49 16.1998 20.052 16.1998C17.584 16.1998 17.208 18.1208 17.208 20.1158V27.6728H12.469V12.4018H17.021V14.4848H17.082C17.718 13.2818 19.265 12.0168 21.573 12.0168C26.374 12.0168 27.265 15.1778 27.265 19.2878V27.6728L27.26 27.6738ZM7.115 10.3148C5.588 10.3148 4.364 9.07983 4.364 7.55883C4.364 6.04283 5.593 4.80983 7.115 4.80983C8.637 4.80983 9.87 6.04283 9.87 7.55883C9.87 9.07983 8.637 10.3148 7.115 10.3148ZM9.489 27.6738H4.74V12.4028H9.489V27.6738ZM29.636 0.402832H2.36C1.057 0.402832 0 1.43383 0 2.70983V30.0968C0 31.3728 1.057 32.4038 2.36 32.4038H29.631C30.932 32.4038 32 31.3728 32 30.0968V2.70983C32 1.43383 30.932 0.402832 29.631 0.402832L29.636 0.402832Z" fill="white"/>
</svg>
