<svg width="32" height="24" viewBox="0 0 32 24" fill="none" xmlns="http://www.w3.org/2000/svg">
<path d="M31.332 4.25671C30.9519 2.90729 29.8995 1.84897 28.5441 1.47485C26.0484 0.807649 16.0153 0.807649 16.0153 0.807649C16.0153 0.807649 6.00121 0.791644 3.47944 1.47485C2.13102 1.84997 1.0737 2.90729 0.697583 4.25671C0.224438 6.81449 -0.0106343 9.40329 0.000369105 12.0041C-0.00463243 14.5879 0.229439 17.1727 0.697583 19.7144C1.0737 21.0639 2.13102 22.1222 3.47944 22.5023C5.9752 23.1695 16.0153 23.1695 16.0153 23.1695C16.0153 23.1695 26.0233 23.1695 28.5441 22.5023C29.8995 22.1222 30.9519 21.0649 31.332 19.7144C31.7911 17.1727 32.0152 14.5879 31.9992 12.0041C32.0152 9.40329 31.7961 6.81449 31.332 4.25671ZM12.8103 16.7926V7.19461L21.1619 12.0041L12.8103 16.7926Z" fill="white"/>
</svg>
